<svg width="1433" height="288" viewBox="0 0 1433 288" fill="none" xmlns="http://www.w3.org/2000/svg">
<path fill-rule="evenodd" clip-rule="evenodd" d="M240.92 35.4199C243.318 35.4199 245.264 33.4746 245.264 31.0762C245.264 28.6797 243.318 26.7324 240.92 26.7324C238.523 26.7324 236.576 28.6797 236.576 31.0762C236.576 33.4746 238.523 35.4199 240.92 35.4199Z" fill="white"/>
<path fill-rule="evenodd" clip-rule="evenodd" d="M240.92 243.895C238.523 243.895 236.576 245.84 236.576 248.238C236.576 250.635 238.523 252.58 240.92 252.58C243.318 252.58 245.264 250.635 245.264 248.238C245.264 245.84 243.318 243.895 240.92 243.895Z" fill="white"/>
<mask id="mask0_423_3503" style="mask-type:luminance" maskUnits="userSpaceOnUse" x="245" y="209" width="9" height="9">
<path d="M245 209H253.951V218H245V209Z" fill="white"/>
</mask>
<g mask="url(#mask0_423_3503)">
<path fill-rule="evenodd" clip-rule="evenodd" d="M249.609 209.145C247.211 209.145 245.266 211.092 245.266 213.488C245.266 215.885 247.211 217.832 249.609 217.832C252.006 217.832 253.951 215.885 253.951 213.488C253.951 211.092 252.006 209.145 249.609 209.145Z" fill="white"/>
</g>
<path fill-rule="evenodd" clip-rule="evenodd" d="M28.1055 39.7646C30.5039 39.7646 32.4492 37.8174 32.4492 35.4209C32.4492 33.0224 30.5039 31.0771 28.1055 31.0771C25.709 31.0771 23.7637 33.0224 23.7637 35.4209C23.7637 37.8174 25.709 39.7646 28.1055 39.7646Z" fill="white"/>
<path fill-rule="evenodd" clip-rule="evenodd" d="M32.4492 243.895C30.0508 243.895 28.1055 245.84 28.1055 248.238C28.1055 250.635 30.0508 252.58 32.4492 252.58C34.8457 252.58 36.793 250.635 36.793 248.238C36.793 245.84 34.8457 243.895 32.4492 243.895Z" fill="white"/>
<mask id="mask1_423_3503" style="mask-type:luminance" maskUnits="userSpaceOnUse" x="0" y="191" width="9" height="9">
<path d="M0 191H8.953V200H0V191Z" fill="white"/>
</mask>
<g mask="url(#mask1_423_3503)">
<path fill-rule="evenodd" clip-rule="evenodd" d="M4.3457 191.305C1.94725 191.305 0.00195312 193.25 0.00195312 195.646C0.00195312 198.045 1.94725 199.99 4.3457 199.99C6.7422 199.99 8.6875 198.045 8.6875 195.646C8.6875 193.25 6.7422 191.305 4.3457 191.305Z" fill="white"/>
</g>
<path d="M210.716 177.573C210.728 167.628 208.879 157.77 205.268 148.504C195.252 167.939 178.278 182.887 157.73 190.365C137.185 197.842 114.573 197.301 94.4111 188.847C74.2457 180.396 58.0074 164.654 48.9338 144.76C44.0837 133.964 41.5833 122.26 41.601 110.424C41.6429 81.4401 56.4795 54.4822 80.9473 38.9414C57.2649 49.5719 37.8717 67.8986 25.9206 90.9447C13.9694 113.991 10.1612 140.398 15.1144 165.884C20.0681 191.366 33.4928 214.424 53.2064 231.314C72.9226 248.204 97.7676 257.931 123.71 258.916L123.977 258.926C126.667 259.025 129.382 259.025 132.075 258.926L132.322 258.916C153.331 258.013 173.191 249.063 187.785 233.92C202.377 218.778 210.589 198.605 210.72 177.573L210.716 177.573Z" fill="url(#paint0_linear_423_3503)"/>
<path d="M132.338 29.0839L132.071 29.074C129.381 28.9753 126.666 28.9753 123.973 29.074L123.726 29.0839V29.0815C102.717 29.9873 82.8573 38.9373 68.2656 54.0775C53.6707 69.2201 45.459 89.3957 45.3282 110.425C45.3158 120.369 47.1645 130.228 50.7756 139.493C60.7919 120.058 77.7658 105.111 98.3134 97.6346C118.859 90.1558 141.471 90.6986 161.633 99.15C181.798 107.601 198.036 123.344 207.113 143.237C211.96 154.033 214.461 165.737 214.444 177.573C214.404 206.56 199.565 233.515 175.1 249.056C198.782 238.423 218.173 220.096 230.124 197.05C242.075 174.007 245.883 147.597 240.93 122.117C235.976 96.6327 222.552 73.5746 202.838 56.6873C183.124 39.8001 158.277 30.0725 132.334 29.0874L132.338 29.0839Z" fill="url(#paint1_linear_423_3503)"/>
<path d="M376.511 56.4545V231H350.176V56.4545H376.511ZM438.301 153.273V231H412.818V100.091H437.278V121.398H438.898C441.909 114.466 446.625 108.898 453.045 104.693C459.523 100.489 467.676 98.3864 477.506 98.3864C486.426 98.3864 494.239 100.261 500.943 104.011C507.648 107.705 512.847 113.216 516.54 120.545C520.233 127.875 522.08 136.937 522.08 147.733V231H496.597V150.801C496.597 141.312 494.125 133.898 489.182 128.557C484.239 123.159 477.449 120.46 468.812 120.46C462.903 120.46 457.648 121.739 453.045 124.295C448.5 126.852 444.892 130.602 442.222 135.545C439.608 140.432 438.301 146.341 438.301 153.273ZM617.364 100.091V120.545H545.858V100.091H617.364ZM565.034 68.7273H590.517V192.562C590.517 197.506 591.256 201.227 592.733 203.727C594.21 206.17 596.114 207.847 598.443 208.756C600.83 209.608 603.415 210.034 606.199 210.034C608.244 210.034 610.034 209.892 611.568 209.608C613.102 209.324 614.295 209.097 615.148 208.926L619.75 229.977C618.273 230.545 616.17 231.114 613.443 231.682C610.716 232.307 607.307 232.648 603.216 232.705C596.511 232.818 590.261 231.625 584.466 229.125C578.67 226.625 573.983 222.761 570.403 217.534C566.824 212.307 565.034 205.744 565.034 197.847V68.7273ZM700.567 233.642C687.669 233.642 676.561 230.886 667.243 225.375C657.982 219.807 650.822 211.994 645.766 201.938C640.766 191.824 638.266 179.977 638.266 166.398C638.266 152.989 640.766 141.17 645.766 130.943C650.822 120.716 657.868 112.733 666.902 106.994C675.993 101.256 686.618 98.3864 698.777 98.3864C706.163 98.3864 713.322 99.608 720.254 102.051C727.186 104.494 733.408 108.33 738.919 113.557C744.43 118.784 748.777 125.574 751.959 133.926C755.141 142.222 756.732 152.307 756.732 164.182V173.216H652.669V154.125H731.76C731.76 147.42 730.396 141.483 727.669 136.312C724.942 131.085 721.107 126.966 716.163 123.955C711.277 120.943 705.538 119.438 698.947 119.438C691.788 119.438 685.538 121.199 680.197 124.722C674.913 128.187 670.822 132.733 667.925 138.358C665.084 143.926 663.663 149.977 663.663 156.511V171.426C663.663 180.176 665.197 187.619 668.266 193.756C671.391 199.892 675.737 204.58 681.305 207.818C686.874 211 693.379 212.591 700.822 212.591C705.652 212.591 710.055 211.909 714.033 210.545C718.01 209.125 721.447 207.023 724.345 204.239C727.243 201.455 729.459 198.017 730.993 193.926L755.112 198.273C753.18 205.375 749.714 211.597 744.714 216.938C739.771 222.222 733.55 226.341 726.05 229.295C718.607 232.193 710.112 233.642 700.567 233.642ZM785.006 231V100.091H809.636V120.886H811C813.386 113.841 817.591 108.301 823.614 104.267C829.693 100.176 836.568 98.1307 844.239 98.1307C845.83 98.1307 847.705 98.1875 849.864 98.3011C852.08 98.4148 853.812 98.5568 855.062 98.7273V123.102C854.04 122.818 852.222 122.506 849.608 122.165C846.994 121.767 844.381 121.568 841.767 121.568C835.744 121.568 830.375 122.847 825.659 125.403C821 127.903 817.307 131.398 814.58 135.886C811.852 140.318 810.489 145.375 810.489 151.057V231H785.006ZM879.161 231V56.4545H905.496V208.33H984.587V231H879.161ZM1067.73 233.642C1055.45 233.642 1044.74 230.83 1035.6 225.205C1026.45 219.58 1019.35 211.71 1014.29 201.597C1009.23 191.483 1006.7 179.665 1006.7 166.142C1006.7 152.562 1009.23 140.687 1014.29 130.517C1019.35 120.347 1026.45 112.449 1035.6 106.824C1044.74 101.199 1055.45 98.3864 1067.73 98.3864C1080 98.3864 1090.71 101.199 1099.86 106.824C1109 112.449 1116.11 120.347 1121.16 130.517C1126.22 140.687 1128.75 152.562 1128.75 166.142C1128.75 179.665 1126.22 191.483 1121.16 201.597C1116.11 211.71 1109 219.58 1099.86 225.205C1090.71 230.83 1080 233.642 1067.73 233.642ZM1067.81 212.25C1075.77 212.25 1082.36 210.148 1087.58 205.943C1092.81 201.739 1096.67 196.142 1099.17 189.153C1101.73 182.165 1103.01 174.466 1103.01 166.057C1103.01 157.705 1101.73 150.034 1099.17 143.045C1096.67 136 1092.81 130.347 1087.58 126.085C1082.36 121.824 1075.77 119.693 1067.81 119.693C1059.8 119.693 1053.15 121.824 1047.87 126.085C1042.64 130.347 1038.75 136 1036.19 143.045C1033.69 150.034 1032.44 157.705 1032.44 166.057C1032.44 174.466 1033.69 182.165 1036.19 189.153C1038.75 196.142 1042.64 201.739 1047.87 205.943C1053.15 210.148 1059.8 212.25 1067.81 212.25ZM1212.34 233.642C1200.06 233.642 1189.35 230.83 1180.2 225.205C1171.06 219.58 1163.95 211.71 1158.9 201.597C1153.84 191.483 1151.31 179.665 1151.31 166.142C1151.31 152.562 1153.84 140.687 1158.9 130.517C1163.95 120.347 1171.06 112.449 1180.2 106.824C1189.35 101.199 1200.06 98.3864 1212.34 98.3864C1224.61 98.3864 1235.32 101.199 1244.47 106.824C1253.61 112.449 1260.72 120.347 1265.77 130.517C1270.83 140.687 1273.36 152.562 1273.36 166.142C1273.36 179.665 1270.83 191.483 1265.77 201.597C1260.72 211.71 1253.61 219.58 1244.47 225.205C1235.32 230.83 1224.61 233.642 1212.34 233.642ZM1212.42 212.25C1220.38 212.25 1226.97 210.148 1232.19 205.943C1237.42 201.739 1241.28 196.142 1243.78 189.153C1246.34 182.165 1247.62 174.466 1247.62 166.057C1247.62 157.705 1246.34 150.034 1243.78 143.045C1241.28 136 1237.42 130.347 1232.19 126.085C1226.97 121.824 1220.38 119.693 1212.42 119.693C1204.41 119.693 1197.76 121.824 1192.48 126.085C1187.25 130.347 1183.36 136 1180.8 143.045C1178.3 150.034 1177.05 157.705 1177.05 166.057C1177.05 174.466 1178.3 182.165 1180.8 189.153C1183.36 196.142 1187.25 201.739 1192.48 205.943C1197.76 210.148 1204.41 212.25 1212.42 212.25ZM1301.8 280.091V100.091H1326.69V121.312H1328.82C1330.3 118.585 1332.43 115.432 1335.21 111.852C1338 108.273 1341.86 105.148 1346.8 102.477C1351.75 99.75 1358.28 98.3864 1366.4 98.3864C1376.97 98.3864 1386.4 101.057 1394.7 106.398C1403 111.739 1409.5 119.437 1414.22 129.494C1418.99 139.551 1421.38 151.653 1421.38 165.801C1421.38 179.949 1419.02 192.08 1414.3 202.193C1409.59 212.25 1403.11 220.006 1394.87 225.46C1386.63 230.858 1377.23 233.557 1366.66 233.557C1358.71 233.557 1352.2 232.222 1347.14 229.551C1342.14 226.881 1338.22 223.756 1335.38 220.176C1332.54 216.597 1330.35 213.415 1328.82 210.631H1327.29V280.091H1301.8ZM1326.77 165.545C1326.77 174.75 1328.11 182.818 1330.78 189.75C1333.45 196.682 1337.31 202.108 1342.37 206.028C1347.43 209.892 1353.62 211.824 1360.95 211.824C1368.56 211.824 1374.93 209.807 1380.04 205.773C1385.15 201.682 1389.02 196.142 1391.63 189.153C1394.3 182.165 1395.64 174.295 1395.64 165.545C1395.64 156.909 1394.33 149.153 1391.72 142.278C1389.16 135.403 1385.3 129.977 1380.13 126C1375.01 122.023 1368.62 120.034 1360.95 120.034C1353.56 120.034 1347.31 121.937 1342.2 125.744C1337.14 129.551 1333.31 134.864 1330.69 141.682C1328.08 148.5 1326.77 156.455 1326.77 165.545Z" fill="url(#paint2_linear_423_3503)"/>
<defs>
<linearGradient id="paint0_linear_423_3503" x1="157.025" y1="48.4179" x2="27.2896" y2="231.205" gradientUnits="userSpaceOnUse">
<stop stop-color="white"/>
<stop offset="1" stop-color="white" stop-opacity="0.6"/>
</linearGradient>
<linearGradient id="paint1_linear_423_3503" x1="189.35" y1="38.4764" x2="59.6167" y2="221.261" gradientUnits="userSpaceOnUse">
<stop stop-color="white"/>
<stop offset="1" stop-color="white" stop-opacity="0.6"/>
</linearGradient>
<linearGradient id="paint2_linear_423_3503" x1="331" y1="144" x2="1539.5" y2="59" gradientUnits="userSpaceOnUse">
<stop offset="0.570169" stop-color="white"/>
<stop offset="1" stop-color="white" stop-opacity="0.65"/>
</linearGradient>
</defs>
</svg>
