<svg width="700" height="700" viewBox="0 0 700 700" fill="none" xmlns="http://www.w3.org/2000/svg">
<path fill-rule="evenodd" clip-rule="evenodd" d="M658.766 53.1016C665.324 53.1016 670.644 47.7824 670.644 41.2241C670.644 34.6712 665.324 29.3467 658.766 29.3467C652.213 29.3467 646.889 34.6712 646.889 41.2241C646.889 47.7824 652.213 53.1016 658.766 53.1016Z" fill="white"/>
<path fill-rule="evenodd" clip-rule="evenodd" d="M658.766 623.15C652.213 623.15 646.889 628.47 646.889 635.028C646.889 641.581 652.213 646.9 658.766 646.9C665.324 646.9 670.644 641.581 670.644 635.028C670.644 628.47 665.324 623.15 658.766 623.15Z" fill="white"/>
<mask id="mask0_423_3611" style="mask-type:luminance" maskUnits="userSpaceOnUse" x="669" y="527" width="26" height="26">
<path d="M669.922 527.734H694.397V552.344H669.922V527.734Z" fill="white"/>
</mask>
<g mask="url(#mask0_423_3611)">
<path fill-rule="evenodd" clip-rule="evenodd" d="M682.528 528.131C675.97 528.131 670.65 533.455 670.65 540.008C670.65 546.561 675.97 551.886 682.528 551.886C689.081 551.886 694.4 546.561 694.4 540.008C694.4 533.455 689.081 528.131 682.528 528.131Z" fill="white"/>
</g>
<path fill-rule="evenodd" clip-rule="evenodd" d="M76.8487 64.9824C83.4069 64.9824 88.7261 59.6579 88.7261 53.105C88.7261 46.5467 83.4069 41.2275 76.8487 41.2275C70.2958 41.2275 64.9766 46.5467 64.9766 53.105C64.9766 59.6579 70.2958 64.9824 76.8487 64.9824Z" fill="white"/>
<path fill-rule="evenodd" clip-rule="evenodd" d="M88.731 623.15C82.1727 623.15 76.8535 628.47 76.8535 635.028C76.8535 641.581 82.1727 646.9 88.731 646.9C95.2839 646.9 100.608 641.581 100.608 635.028C100.608 628.47 95.2839 623.15 88.731 623.15Z" fill="white"/>
<mask id="mask1_423_3611" style="mask-type:luminance" maskUnits="userSpaceOnUse" x="0" y="478" width="25" height="26">
<path d="M0 478.516H24.4809V503.125H0V478.516Z" fill="white"/>
</mask>
<g mask="url(#mask1_423_3611)">
<path fill-rule="evenodd" clip-rule="evenodd" d="M11.8813 479.35C5.32309 479.35 0.00390625 484.669 0.00390625 491.222C0.00390625 497.78 5.32309 503.099 11.8813 503.099C18.4343 503.099 23.7534 497.78 23.7534 491.222C23.7534 484.669 18.4343 479.35 11.8813 479.35Z" fill="white"/>
</g>
<path d="M576.176 441.799C576.209 414.607 571.154 387.651 561.281 362.315C533.892 415.457 487.479 456.329 431.294 476.779C375.114 497.222 313.286 495.745 258.155 472.629C203.016 449.52 158.614 406.474 133.803 352.078C120.541 322.557 113.704 290.554 113.753 258.191C113.867 178.937 154.436 105.224 221.34 62.7295C156.584 91.7973 103.555 141.909 70.8765 204.926C38.1977 267.943 27.7844 340.151 41.3283 409.838C54.8736 479.515 91.582 542.565 145.486 588.748C199.398 634.931 267.333 661.53 338.27 664.223L338.999 664.25C346.355 664.52 353.779 664.52 361.142 664.25L361.817 664.223C419.265 661.753 473.568 637.281 513.474 595.875C553.375 554.469 575.829 499.309 576.187 441.8L576.176 441.799Z" fill="url(#paint0_linear_423_3611)"/>
<path d="M361.862 35.7763L361.133 35.7493C353.777 35.4794 346.353 35.4794 338.991 35.7493L338.316 35.7763V35.7696C280.868 38.2465 226.564 62.7192 186.665 104.118C146.757 145.524 124.303 200.691 123.945 258.193C123.912 285.384 128.967 312.341 138.841 337.677C166.229 284.534 212.642 243.662 268.827 223.219C325.007 202.77 386.835 204.254 441.966 227.363C497.106 250.472 541.507 293.518 566.325 347.914C579.58 377.435 586.417 409.438 586.37 441.801C586.262 521.062 545.687 594.768 478.79 637.263C543.546 608.188 596.568 558.076 629.246 495.059C661.925 432.049 672.338 359.834 658.795 290.164C645.249 220.48 608.541 157.431 554.637 111.254C500.732 65.0783 432.79 38.4794 361.853 35.7858L361.862 35.7763Z" fill="url(#paint1_linear_423_3611)"/>
<defs>
<linearGradient id="paint0_linear_423_3611" x1="429.364" y1="88.6418" x2="74.62" y2="588.451" gradientUnits="userSpaceOnUse">
<stop stop-color="white"/>
<stop offset="1" stop-color="white" stop-opacity="0.6"/>
</linearGradient>
<linearGradient id="paint1_linear_423_3611" x1="517.756" y1="61.4588" x2="163.016" y2="561.26" gradientUnits="userSpaceOnUse">
<stop stop-color="white"/>
<stop offset="1" stop-color="white" stop-opacity="0.6"/>
</linearGradient>
</defs>
</svg>
